<svg
t="1659010944159"
class="icon-Identity"
viewBox="0 0 1024 1024"
version="1.1"
xmlns="http://www.w3.org/2000/svg"
p-id="3836"
width="15"
height="15"
>
<path
  d="M905.846154 157.538462H687.261538s1.969231 13.784615 1.969231 19.692307c0 76.8-61.046154 137.846154-137.846154 137.846154h-118.153846c-76.8 0-137.846154-61.046154-137.846154-137.846154 0-5.907692 0-19.692308 1.969231-19.692307H118.153846c-43.323077 0-78.769231 35.446154-78.769231 78.76923v590.769231c0 43.323077 35.446154 78.769231 78.769231 78.769231h787.692308c43.323077 0 78.769231-35.446154 78.769231-78.769231V236.307692c0-43.323077-35.446154-78.769231-78.769231-78.76923zM427.323077 748.307692H202.830769C177.230769 748.307692 157.538462 724.676923 157.538462 699.076923c0-39.384615 41.353846-61.046154 84.676923-78.769231 29.538462-11.815385 33.476923-23.630769 33.476923-37.415384 0-11.815385-7.876923-23.630769-17.723077-33.476923-17.723077-15.753846-27.569231-39.384615-27.569231-64.984616 0-49.230769 29.538462-90.584615 82.707692-90.584615s82.707692 41.353846 82.707693 90.584615c0 25.6-9.846154 49.230769-27.569231 64.984616-9.846154 9.846154-17.723077 21.661538-17.723077 33.476923 0 11.815385 3.938462 23.630769 33.476923 37.415384 43.323077 17.723077 84.676923 39.384615 84.676923 78.769231 3.938462 25.6-15.753846 49.230769-41.353846 49.230769zM866.461538 669.538462c0 11.815385-7.876923 19.692308-19.692307 19.692307H571.076923c-11.815385 0-19.692308-7.876923-19.692308-19.692307v-39.384616c0-11.815385 7.876923-19.692308 19.692308-19.692308h275.692308c11.815385 0 19.692308 7.876923 19.692307 19.692308v39.384616z m39.384616-157.538462c0 11.815385-7.876923 19.692308-19.692308 19.692308H571.076923c-11.815385 0-19.692308-7.876923-19.692308-19.692308v-39.384615c0-11.815385 7.876923-19.692308 19.692308-19.692308h315.076923c11.815385 0 19.692308 7.876923 19.692308 19.692308v39.384615zM433.230769 236.307692h118.153846c33.476923 0 59.076923-25.6 59.076923-59.076923s-25.6-59.076923-59.076923-59.076923h-118.153846c-33.476923 0-59.076923 25.6-59.076923 59.076923s25.6 59.076923 59.076923 59.076923z"
  p-id="3837"
  fill="#cdcdcd"
></path>
</svg>