<svg t="1659013931033" class="icon-b" viewBox="0 0 1024 1024" version="1.1" xmlns="http://www.w3.org/2000/svg" p-id="1129" width="15" height="15">
    <path d="M691.79 401.16a32 32 0 0 0-45.24-1L469.82 559.47l-81.72-76.31a32 32 0 1 0-44.24 46.24l99.69 93.52a32 32 0 0 0 25.9 13.2h0.75a31.93 31.93 0 0 0 23.12-9.87 33.26 33.26 0 0 0 2.77-3.33l194.7-176.52a32 32 0 0 0 1-45.24z" p-id="1130" fill="#8a8a8a"></path>
    <path d="M518.73 963.65h-2.81c-6.22 0-16.63 0-78.86-35.5a1301.81 1301.81 0 0 1-126.91-82.75c-52.91-39.32-95.42-78.14-126.34-115.4-41-49.37-61.77-96.56-61.77-140.24V256.47a46 46 0 0 1 27-41.87l0.89-0.4 0.91-0.35L499.36 81.34a45.77 45.77 0 0 1 36.7 0.52l349.79 145 0.83 0.41a46.2 46.2 0 0 1 25.93 41.35v321.15c0 43.34-20.74 90.3-61.63 139.58-30.87 37.2-73.28 76-126.06 115.43a1302.91 1302.91 0 0 1-126.86 83.12c-62.37 35.75-72.99 35.75-79.33 35.75zM186 269v320.77c0 52.26 54.53 122.47 153.55 197.7 75.8 57.59 153.77 99.81 177.8 110.72 23.82-10.79 101.61-53 178-111.3 98.81-75.38 153.23-145.39 153.23-197.12V280.71L516.83 143.17z" p-id="1131" fill="#8a8a8a"></path>
</svg>