<?xml version="1.0" standalone="no"?>
<!DOCTYPE svg PUBLIC "-//W3C//DTD SVG 1.1//EN" "http://www.w3.org/Graphics/SVG/1.1/DTD/svg11.dtd">
<svg t="1662118110418" class="icon" style="background-color:#FF5700;" viewBox="0 0 1024 1024" version="1.1" xmlns="http://www.w3.org/2000/svg" p-id="1797" xmlns:xlink="http://www.w3.org/1999/xlink" width="20" height="20">
    <path d="M767.008 160c-168.256 19.328-454.336 9.6-570.432 5.888v40.064c76.8 14.528 94.272 11.84 95.872 56.544 5.536 122.336 2.816 392.416 0 506.08-0.576 42.784-24.448 41.312-95.872 55.36V864c233.536-7.456 393.792-6.752 579.04 0 2.368-29.6 16.512-147.872 22.272-192H758.4c-44.544 105.376-53.12 141.312-148.544 141.312h-140.256c-47.136 0-69.568-19.296-69.568-60.128v-218.368c104.512 0 138.24 3.136 138.24 3.136C586.144 538.688 593.6 576.96 608 640h32c-3.392-154.656-6.912-96.736 0-256h-32c-20.736 89.184-22.08 99.744-68.864 101.248 0 0-47.936 4.704-139.072 3.936v-257.28c0-9.856 0.768-15.36 16.864-15.36h215.328c54.656 0 67.84 69.984 84.384 135.456H755.2c1.408-28.384 7.04-139.776 11.808-192z" p-id="1798" fill="#FFFFFF"></path>
</svg>