<svg
t="1659010990378"
class="icon-note"
viewBox="0 0 1024 1024"
version="1.1"
xmlns="http://www.w3.org/2000/svg"
p-id="5048"
width="15"
height="15"
>
<path
  d="M0 204.8h921.6v102.4H0zM918.186667 170.666667c-6.826667-58.026667-58.026667-102.4-116.053334-102.4h-682.666666C58.026667 68.266667 10.24 112.64 3.413333 170.666667h914.773334zM0 341.333333v290.133334C0 696.32 54.613333 750.933333 119.466667 750.933333h477.866666c10.24 0 17.066667-6.826667 17.066667-17.066666v-170.666667c0-20.48 13.653333-40.96 30.72-47.786667l170.666667-68.266666c13.653333-3.413333 27.306667-3.413333 37.546666 0l44.373334 17.066666c6.826667 3.413333 10.24 0 17.066666-3.413333 3.413333-3.413333 6.826667-6.826667 6.826667-13.653333V341.333333H0z m119.466667 136.533334h204.8c10.24 0 17.066667 6.826667 17.066666 17.066666s-6.826667 17.066667-17.066666 17.066667h-204.8c-10.24 0-17.066667-6.826667-17.066667-17.066667s6.826667-17.066667 17.066667-17.066666z m307.2 136.533333h-307.2c-10.24 0-17.066667-6.826667-17.066667-17.066667s6.826667-17.066667 17.066667-17.066666h307.2c10.24 0 17.066667 6.826667 17.066666 17.066666s-6.826667 17.066667-17.066666 17.066667z"
  fill="#bfbfbf"
  p-id="5049"
></path>
<path
  d="M1013.76 546.133333l-170.666667-68.266666h-13.653333l-170.666667 68.266666c-6.826667 3.413333-10.24 10.24-10.24 17.066667v238.933333c0 64.853333 150.186667 136.533333 180.906667 153.6h13.653333c30.72-13.653333 180.906667-88.746667 180.906667-153.6v-238.933333c0-6.826667-3.413333-13.653333-10.24-17.066667zM921.6 768c0 3.413333-3.413333 10.24-6.826667 13.653333l-6.826666 6.826667c-13.653333 13.653333-30.72 30.72-64.853334 47.786667-3.413333 0-3.413333 3.413333-6.826666 3.413333s-6.826667 0-10.24-3.413333c-3.413333-6.826667-6.826667-10.24-6.826667-17.066667v-102.4h-51.2c-10.24 0-17.066667-6.826667-17.066667-17.066667V614.4c0-6.826667 3.413333-13.653333 10.24-13.653333l68.266667-34.133334c6.826667-3.413333 10.24-3.413333 17.066667 0 3.413333 3.413333 6.826667 10.24 6.826666 13.653334v102.4h51.2c10.24 0 17.066667 6.826667 17.066667 17.066666v68.266667z"
  fill="#bfbfbf"
  p-id="5050"
></path>
</svg>