<svg t="1666883260011" class="icon" viewBox="0 0 1024 1024" version="1.1" xmlns="http://www.w3.org/2000/svg" p-id="2579" width="20" height="20">
    <path d="M927.999696 64.000337H687.999781l-18.799994-37.399986A47.999983 47.999983 0 0 0 626.199802 0.00036H397.599883a47.439983 47.439983 0 0 0-42.799985 26.599991L335.999904 64.000337H95.999989A31.999989 31.999989 0 0 0 64 96.000326v63.999978a31.999989 31.999989 0 0 0 31.999989 31.999988h831.999707a31.999989 31.999989 0 0 0 31.999989-31.999988V96.000326a31.999989 31.999989 0 0 0-31.999989-31.999989zM170.399963 934.000032a95.999966 95.999966 0 0 0 95.799966 89.999968h491.599827a95.999966 95.999966 0 0 0 95.799966-89.999968L895.999708 256.00027H127.999978z" p-id="2580" fill="#d81e06"></path>
</svg>